<svg xmlns="http://www.w3.org/2000/svg" viewBox="0 0 554.43 554.46"><path d="M493,202.81v25c-.91,1.06-.34,2.31-.44,3.47,0,.48.05.95.05,1.43a164.85,164.85,0,0,1-1.74,20.09,266.5,266.5,0,0,1-11,48.66q-26.72,80.77-93.35,133.09A272.32,272.32,0,0,1,274.47,487,277.07,277.07,0,0,1,241.33,492a91.19,91.19,0,0,1-12.9.68h-25a11.52,11.52,0,0,1-1.17.09c-7.51-.3-15-1-22.44-2a265,265,0,0,1-41-8.52c-47.44-13.87-88.48-38.48-122.62-74.18-45.75-47.85-71.26-105-76.75-171a279.14,279.14,0,0,1,8.26-92C-38.93,94.93-13.67,51.56,24,15.73c51.25-48.8,112.54-74.36,183.25-77.19A275.82,275.82,0,0,1,341.85-31.4q92,47.9,131.57,143.85a267.22,267.22,0,0,1,16.35,58.7A314.65,314.65,0,0,1,493,202.81ZM207.13,313.63c10.32.17,19.11.34,27.9.45,14.87.17,29.73-.52,44.56-1.57,11-.78,22-1.8,33-2.75a85.11,85.11,0,0,0,14.88-2.38c11.84-3.18,19.61-10.55,23.27-22.28a74.76,74.76,0,0,0,2.75-12.62q1.65-12.48,2.6-25c.94-12.77,1.39-25.54,1.15-38.34a436.74,436.74,0,0,0-3.76-49.93,61.6,61.6,0,0,0-4.33-16.88,29.33,29.33,0,0,0-16.81-16.17,49.1,49.1,0,0,0-12.3-3c-9.21-1.06-18.45-1.81-27.69-2.55-13.86-1.09-27.74-1.93-41.62-2.76-6.54-.4-13.08-.89-19.62-1.21-5.66-.28-11.3-1-17-.65-11.24.72-22.49,1.35-33.74,2-7.82.47-15.64.92-23.45,1.47-11.16.77-22.32,1.62-33.45,2.74a100.73,100.73,0,0,0-15.62,2.37c-11.67,3.06-19.77,10-23.76,21.54a57.72,57.72,0,0,0-2.15,8.09,176.23,176.23,0,0,0-2,18.33c-1,12.43-1.57,24.89-1.72,37.36a542.36,542.36,0,0,0,2.43,57.71,78.52,78.52,0,0,0,3.25,16.9c3.87,12.09,11.88,19.75,24.2,23a83.42,83.42,0,0,0,15.86,2.27c9.33.58,18.67,1.07,28,1.63C170.8,312.51,189.72,313.13,207.13,313.63Z" transform="translate(61.43 61.66)" fill="#f6d9e5"/><path d="M189,259.09V173.25c6.41,3.51,12.47,7.12,18.6,10.62s12.33,7.08,18.49,10.62l18.49,10.63,18.7,10.75Z" transform="translate(61.43 61.66)" fill="#f6d9e5"/></svg>