<svg xmlns="http://www.w3.org/2000/svg" viewBox="0 0 554.45 556.16"><path d="M205.85,494c-2.4-1.63-4.93-1.51-7.46-1.42-6.19-.67-12.4-1.11-18.59-1.91a269.9,269.9,0,0,1-41-8.53C91.4,468.31,50.33,443.74,16.22,408-31.47,358.1-57.15,298.41-61,229.48a268.15,268.15,0,0,1,3.6-60.66A265.05,265.05,0,0,1-32.6,92.61Q19.75-10,128.79-47.63a258.22,258.22,0,0,1,65.58-13.14c4.86-.35,9.72-.63,14.58-.94l14.4,0a5.38,5.38,0,0,0,.7.12,307.69,307.69,0,0,1,31.5,2.73A276.14,276.14,0,0,1,411.27,18.8,274.5,274.5,0,0,1,482,137a264,264,0,0,1,10.65,60c-.36,1.95.45,3.82.36,5.76V231c-.72,1.06-.33,2.23-.36,3.36a246.27,246.27,0,0,1-3.37,28.78,272.53,272.53,0,0,1-24.62,75.53A278,278,0,0,1,301,479.77a274.63,274.63,0,0,1-48.76,10.93c-6.1.8-12.24,1.21-18.35,1.9-3-.09-6-.19-8.79,1.85Zm10.58-132c20.07.27,40.14-.06,60.2-.33a108.58,108.58,0,0,0,21.21-1.87c32.74-6.9,56.47-33.82,60.47-67.71a146.26,146.26,0,0,0,.58-17q.06-59.73,0-119.46a105.16,105.16,0,0,0-1.69-21.47c-7.51-36.37-37.45-61.79-75.72-62.63-16.14-.36-32.3-.13-48.45-.13q-40.31,0-80.6,0a106.21,106.21,0,0,0-14.59.86c-14.08,1.94-26.87,7-38,15.92-18.62,14.93-28.08,34.67-29.45,58.26-.59,10.21-.29,20.46-.29,30.7q0,52.53.09,105.06a85.56,85.56,0,0,0,1.53,16.2c6.59,34.37,35,62.13,74.62,63.14q13.42.35,26.86.42C187.65,362,202,362,216.43,362Z" transform="translate(61.45 61.71)" fill="#f6d9e5"/><path d="M214.69,337.52c-18.78,0-37.57.05-56.36,0-6.38,0-12.76-.08-19.11-1.2-22-3.91-38.5-19.58-43.37-41.43a74,74,0,0,1-1.78-16.17q-.07-55,0-110.09c0-6.87-.23-13.75.36-20.61,1-11,4.11-21.31,10.71-30.33,8.19-11.17,19.39-17.57,32.8-20.37a73.29,73.29,0,0,1,15-1.46q62.37,0,124.72,0c9.91,0,19.41,1.83,28.21,6.44,15,7.84,23.84,20.34,27.52,36.69a65.46,65.46,0,0,1,1.48,14.51q0,48.81,0,97.62c0,10.63.12,21.26-.13,31.89a57.07,57.07,0,0,1-7.37,27.25c-8.21,14.46-20.8,22.78-37,26-6.24,1.27-12.56,1.23-18.86,1.25C252.59,337.56,233.64,337.52,214.69,337.52ZM293.28,216.2a78.11,78.11,0,0,0-1.47-14.56c-3.29-16.21-10.72-30.26-22.74-41.59-20.46-19.3-44.69-26.71-72.21-20.27-41.73,9.77-67.88,51.88-58.68,93.71a78.34,78.34,0,0,0,91,60.61C266,287.22,293.26,254.46,293.28,216.2Zm-1-61.33a16.22,16.22,0,0,0-.1-32.44c-10.22.12-15.89,7.88-15.88,16.24A15.85,15.85,0,0,0,292.3,154.87Z" transform="translate(61.45 61.71)" fill="#f6d9e5"/><path d="M267.16,216.52c0,29.19-24,53.44-52.88,53.42-28.45,0-52.17-24.25-52.19-53.28A52.81,52.81,0,0,1,214.77,164C243.26,164.07,267.17,188,267.16,216.52Z" transform="translate(61.45 61.71)" fill="#f6d9e5"/></svg>