<svg xmlns="http://www.w3.org/2000/svg" viewBox="0 0 554.45 555.77"><path d="M493,202.73V231c-.72,1.06-.33,2.23-.36,3.36a246.27,246.27,0,0,1-3.37,28.78,272.53,272.53,0,0,1-24.62,75.53A278,278,0,0,1,301,479.77a274.63,274.63,0,0,1-48.76,10.93c-6.1.8-12.24,1.21-18.35,1.9-2.78-.09-5.56-.17-8.23,1.46l-20.41-.39c-2.22-1.24-4.54-1.13-6.87-1.05-6.19-.67-12.4-1.11-18.58-1.91a268.56,268.56,0,0,1-41-8.53C91.4,468.31,50.33,443.74,16.22,408-31.47,358.1-57.15,298.41-61,229.48a268.73,268.73,0,0,1,3.6-60.66A265.36,265.36,0,0,1-32.6,92.61Q19.75-10,128.79-47.63a258.22,258.22,0,0,1,65.58-13.14c4.86-.35,9.72-.63,14.58-.94l14.4,0a5.38,5.38,0,0,0,.7.12,310.54,310.54,0,0,1,31.5,2.73A276.14,276.14,0,0,1,411.27,18.8,274.5,274.5,0,0,1,482,137a264,264,0,0,1,10.65,60C492.28,198.92,493.09,200.79,493,202.73ZM197.93,223.21a7.91,7.91,0,0,0,.17-2.64q0-14.4,0-28.79c0-4.15,0-8.31-.15-12.47a6.24,6.24,0,0,0-5.45-5.73,91.15,91.15,0,0,0-21.77.6c-21.63,3.57-39.83,13.58-54.16,30.12-18.73,21.6-25.85,46.81-21.75,75.07a85.47,85.47,0,0,0,24.25,49,99.7,99.7,0,0,0,40.28,24.7,81.86,81.86,0,0,0,38.11,3.16,103.71,103.71,0,0,0,40-15.22c14.88-9.33,26.21-21.81,33.27-38a98.84,98.84,0,0,0,7.82-37.29c.21-8.31.2-16.63.2-24.94q0-34.31-.1-68.61c0-3.49.28-7,.5-10.35.52-.28.75,0,1,.17,2.4,1.72,4.79,3.47,7.21,5.17,15.67,11,33,16.94,52.24,16.94a11.87,11.87,0,0,0,4.64-1,4.83,4.83,0,0,0,3.3-4.91c.29-13.67.08-27.34.2-41,0-1.31-.42-1.6-1.63-1.57a66.64,66.64,0,0,1-13.6-1.07,58,58,0,0,1-29.27-14.91c-13.08-12-21.46-26.44-23.83-44.18a40.26,40.26,0,0,0-.75-5.46c-.79-2.86-2.3-4.19-5.24-4.37-1.11-.07-2.24,0-3.36,0-11.19.19-22.38.25-33.57,0a15.26,15.26,0,0,0-2.87.16,4.62,4.62,0,0,0-4,3.6,16.38,16.38,0,0,0-.4,4.52q.17,27.35.09,54.69c-.06,15.75.05,31.5,0,47.25q0,43.42-.09,86.84A52.33,52.33,0,0,1,228,275.64a43.06,43.06,0,0,1-48.69,31.69c-28.52-4.58-42.3-32.66-33.66-57,6.11-17.21,22.71-28.31,41.5-27.88C190.71,222.55,194.28,223,197.93,223.21Z" transform="translate(61.45 61.71)" fill="#f6d9e5"/></svg>