<svg xmlns="http://www.w3.org/2000/svg" viewBox="0 0 554.45 554.79"><path d="M493,200.29V231c-.14.76-.34,1.52-.41,2.29-.49,5.65-.79,11.32-1.45,16.95a260.8,260.8,0,0,1-12.83,55.69c-17.93,51.46-48.24,94.23-91.08,127.87-45.7,35.88-97.76,55.39-155.8,58.8a18.88,18.88,0,0,0-2.33.39H202.72a7.56,7.56,0,0,0-1.36-.35c-4.46-.36-8.93-.62-13.39-1a254.71,254.71,0,0,1-40.1-7c-51-13.11-95.1-38.44-131.52-76.5C-31.43,358.21-57.15,298.48-61,229.48a266.54,266.54,0,0,1,5.52-70.8C-43.75,103.57-17.85,56.13,22.58,17c48.65-47.14,107.1-73,174.66-78.05A270.36,270.36,0,0,1,261.52-58a273.53,273.53,0,0,1,80.27,26.39,277.67,277.67,0,0,1,138.09,161.7,254.59,254.59,0,0,1,12.73,68.36A10.44,10.44,0,0,0,493,200.29ZM197.88,223.2a4.89,4.89,0,0,0,.21-.8c0-14.39-.05-28.78-.14-43.17a6.15,6.15,0,0,0-5.51-5.68,95.55,95.55,0,0,0-19.86.37,88,88,0,0,0-52.48,26.55c-20.35,21-28.79,46.36-25.75,75.43A88,88,0,0,0,110,317.43c8.73,12.57,20.36,21.78,33.71,28.93,20.5,11,42,13.75,64.52,7.55,16.76-4.63,31.79-12.57,44.37-24.71,15.94-15.39,23.72-34.58,25.55-56.36.55-6.52.54-13.09.58-19.65.08-15.67.05-31.34.05-47,0-12.32,0-24.63,0-36.94,0-2.52.28-5,.43-7.53.4,0,.59,0,.69,0,.74.48,1.46,1,2.17,1.5a121.43,121.43,0,0,0,19.06,12A86.17,86.17,0,0,0,339.55,184a14.7,14.7,0,0,0,4.42-.87c2.45-.79,3.6-2.38,3.59-5.18-.05-13.67.1-27.34.17-41a8,8,0,0,0-.13-1.07,2.39,2.39,0,0,0-.56-.24c-1,0-1.91,0-2.87-.05a66,66,0,0,1-19.57-3.13c-9.24-3.06-17-8.47-23.82-15.24-11.77-11.6-19.19-25.42-21.33-41.92-.2-1.5-.31-3-.6-4.51-.74-3.83-2.36-5.17-6.22-5.26-1,0-1.92,0-2.88,0q-16.54,0-33.1-.05a21.22,21.22,0,0,0-2.87.14,4.43,4.43,0,0,0-4.14,3.73,27,27,0,0,0-.4,4.75c0,11,.11,22.07.12,33.11q0,34.41,0,68.84,0,44.75-.13,89.48a41.42,41.42,0,0,1-1.71,11.82,43,43,0,0,1-48.11,30c-32.25-5.08-44.57-39.43-30.7-63.65,8.51-14.87,25.57-23.11,43.16-21C193.84,222.92,195.83,223,197.88,223.2Z" transform="translate(61.45 61.79)" fill="#cda4a0"/></svg>