<svg xmlns="http://www.w3.org/2000/svg" viewBox="0 0 554.45 554.79"><path d="M229.1,493H202.72a7.56,7.56,0,0,0-1.36-.35c-4.46-.36-8.93-.62-13.39-1a254.71,254.71,0,0,1-40.1-7c-51-13.11-95.1-38.44-131.52-76.5C-31.43,358.21-57.15,298.48-61,229.48a266.54,266.54,0,0,1,5.52-70.8C-43.75,103.57-17.85,56.13,22.58,17c48.65-47.14,107.1-73,174.66-78.05A270.36,270.36,0,0,1,261.52-58a273.53,273.53,0,0,1,80.27,26.39,277.67,277.67,0,0,1,138.09,161.7,254.59,254.59,0,0,1,12.73,68.36,10.44,10.44,0,0,0,.39,1.81V231c-.14.76-.34,1.52-.41,2.29-.49,5.65-.79,11.32-1.45,16.95a260.8,260.8,0,0,1-12.83,55.69c-17.93,51.46-48.24,94.23-91.08,127.87-45.7,35.88-97.76,55.39-155.8,58.8A18.88,18.88,0,0,0,229.1,493ZM208.56,313.88l0-.26,19.89.41c17,.33,34.06-.3,51-1.52,11-.78,22-1.79,33-2.74a87.57,87.57,0,0,0,14.66-2.32c12.07-3.15,20-10.59,23.59-22.56a62.42,62.42,0,0,0,2.26-9.78c1.15-9.2,2.18-18.41,3-27.64a356.16,356.16,0,0,0,1.21-38.1,436.55,436.55,0,0,0-3.76-50.18,60.13,60.13,0,0,0-4.75-17.76,29,29,0,0,0-15.53-14.93A46.41,46.41,0,0,0,320,123.17c-7.23-.76-14.47-1.49-21.72-2-13.07-1-26.15-1.89-39.23-2.78-9.41-.63-18.82-1.23-28.24-1.74-5.66-.3-11.33-.61-17-.53s-11.33.61-17,1c-16.59,1.06-33.19,2-49.77,3.22-10.76.78-21.5,1.81-32.22,3a50.58,50.58,0,0,0-10.47,2.46C93.4,129.37,86.72,137.14,83.42,148c-1.84,6.08-2.51,12.35-3.08,18.65q-2,22.94-2.22,46a548.56,548.56,0,0,0,2.43,54.84,79.51,79.51,0,0,0,3.3,17.15C87.6,296.24,95.17,304,107,307.15a66.08,66.08,0,0,0,12,2.15c10.91.86,21.85,1.52,32.78,2.06C170.71,312.28,189.64,313.05,208.56,313.88Z" transform="translate(61.45 61.79)" fill="#cda4a0"/><path d="M189,173.23l74.21,42.63L189,259Z" transform="translate(61.45 61.79)" fill="#cda4a0"/></svg>