<svg xmlns="http://www.w3.org/2000/svg" viewBox="0 0 554.45 554.79"><path d="M229.1,493H202.72a7.56,7.56,0,0,0-1.36-.35c-4.46-.36-8.93-.62-13.39-1a254.71,254.71,0,0,1-40.1-7c-51-13.11-95.1-38.44-131.52-76.5C-31.43,358.21-57.15,298.48-61,229.48a266.54,266.54,0,0,1,5.52-70.8C-43.75,103.57-17.85,56.13,22.58,17c48.65-47.14,107.1-73,174.66-78.05A270.36,270.36,0,0,1,261.52-58a273.53,273.53,0,0,1,80.27,26.39,277.67,277.67,0,0,1,138.09,161.7,254.59,254.59,0,0,1,12.73,68.36,10.44,10.44,0,0,0,.39,1.81V231c-.14.76-.34,1.52-.41,2.29-.49,5.65-.79,11.32-1.45,16.95a260.8,260.8,0,0,1-12.83,55.69c-17.93,51.46-48.24,94.23-91.08,127.87-45.7,35.88-97.76,55.39-155.8,58.8A18.88,18.88,0,0,0,229.1,493ZM216,362v.32q28.78-.32,57.56-.64c7-.08,14.06-.15,21-1.34,32.48-5.55,57.51-31.09,62.87-65,1.08-6.84,1-13.71,1-20.58q.06-59.49,0-119c0-7-.14-14.06-1.57-21-4.57-22.18-16.1-39.64-35.4-51.68-13.32-8.3-28-11.74-43.63-11.74H152a99.69,99.69,0,0,0-17.67,1.36c-17.41,3.14-32.29,11-44.16,24.18C77.45,111,70.94,127.74,70,146.57c-.49,10.29-.28,20.62-.28,30.94q0,52.29.08,104.59a86.3,86.3,0,0,0,1.56,16.44c6.74,34.62,35.33,62.11,74.81,63,8.95.21,17.9.37,26.85.41C187.38,362,201.69,362,216,362Z" transform="translate(61.45 61.79)" fill="#cda4a0"/><path d="M214.73,337.51c-18.79,0-37.58,0-56.37,0-7.11,0-14.23,0-21.22-1.66-22.24-5.29-35.9-19.14-41.31-41.25a66.81,66.81,0,0,1-1.75-15.94Q94,223.71,94,168.78c0-6.95,0-13.92.43-20.86A56.62,56.62,0,0,1,105,117.77c8.15-11.21,19.35-17.65,32.75-20.49a70.07,70.07,0,0,1,14.52-1.47q62.73,0,125.45,0a60.37,60.37,0,0,1,24.09,4.59c17.15,7.34,27.38,20.44,31.52,38.46a63.39,63.39,0,0,1,1.5,14.28q0,48.81,0,97.63,0,14.86,0,29.74a60.46,60.46,0,0,1-5.59,26.05c-7.83,16.51-21.05,26.08-38.79,29.72-6.31,1.29-12.72,1.23-19.11,1.25C252.46,337.55,233.6,337.51,214.73,337.51Zm78.76-120.66c-.36-4-.48-8-1.11-11.92-3.19-19.83-12.42-36.39-27.95-49.09-19.92-16.29-42.69-22-67.85-16.05-39.06,9.26-67.37,49.15-58.61,92.61a78.33,78.33,0,0,0,91.13,61.66C266.05,287.21,293.26,254.49,293.49,216.85Zm-1.41-62a16.24,16.24,0,0,0,.12-32.47,15.74,15.74,0,0,0-15.87,16C276.26,147.58,283.17,154.8,292.08,154.83Z" transform="translate(61.45 61.79)" fill="#cda4a0"/><path d="M267.17,216.64c0,29.06-24.08,53.3-52.85,53.27-28.49,0-52.23-24.26-52.22-53.32A52.82,52.82,0,0,1,214.87,164C243.4,164.1,267.19,188.05,267.17,216.64Z" transform="translate(61.45 61.79)" fill="#cda4a0"/></svg>